<svg width="80" height="80" viewBox="0 0 80 80" fill="none" xmlns="http://www.w3.org/2000/svg">
<rect x="48" y="35" width="2" height="4" fill="#115033"/>
<rect width="15" height="17" transform="translate(33 35)" fill="#115033"/>
<path d="M39.2724 2.27555C38.0534 3.02222 37.8248 3.95174 38.221 6.54222C38.3582 7.51745 38.5258 8.98031 38.5563 9.78793C38.6477 11.2051 38.6324 11.3117 38.2515 11.8603C38.0382 12.1955 37.8401 12.6527 37.8096 12.8813C37.7639 13.3232 37.7486 13.3232 36.0115 13.5822C33.8934 13.887 33.2534 14.0394 31.3334 14.6489C27.2343 15.9594 23.9429 17.8794 20.5448 20.9575C19.2496 22.1308 19.1124 22.2222 18.8534 22.0241C18.6858 21.9022 18.3353 21.7955 18.061 21.7955C17.2229 21.7955 16.6896 21.3994 14.221 18.9765C12.362 17.1479 11.722 16.6146 11.2191 16.4622C8.87244 15.7613 7.34863 18.4279 9.10102 20.1803C9.39054 20.4546 10.4267 21.1708 11.4324 21.7651C13.3524 22.9079 14.7543 23.8984 15.0591 24.3403C15.1658 24.4927 15.3029 24.8432 15.3639 25.1175C15.4248 25.3917 15.5924 25.6965 15.7601 25.8032C15.9124 25.8946 16.0496 26.0317 16.0496 26.0927C16.0496 26.1689 15.6839 26.8546 15.242 27.6317C13.4286 30.7555 12.2553 34.047 11.6153 37.7955C11.4172 38.9384 11.3258 43.8146 11.4782 45.3994C11.5543 46.207 11.5391 46.2375 11.1124 46.3746C10.8686 46.4508 10.5029 46.7251 10.2743 46.9689C9.77149 47.5327 8.79625 47.807 6.44959 48.0203C3.75244 48.2641 2.68578 48.4622 2.16768 48.8127C0.598157 49.8794 0.613395 51.7232 2.19816 52.546C3.11244 53.0336 3.95054 52.927 6.22101 52.0279C7.21149 51.647 8.58292 51.1898 9.28387 51.007C10.4115 50.7175 10.6096 50.7022 11.0515 50.8851C11.3258 51.007 11.8134 51.0984 12.1486 51.1136L12.7277 51.1289L13.1391 52.2717C15.2115 57.8946 19.5239 63.2584 24.6286 66.5041C25.3905 66.9917 25.4972 67.1136 25.3905 67.4032C25.3296 67.586 25.2839 68.1041 25.3143 68.546C25.3601 69.5365 24.9791 70.3594 23.181 73.1022C21.7639 75.2813 21.4591 76.0736 21.7029 77.0336C21.9467 77.9936 22.5563 78.5117 23.5467 78.6032C24.2172 78.6489 24.4458 78.6032 24.8877 78.2984C25.6953 77.7498 26.0305 77.1098 26.7315 74.9308C27.7524 71.6698 28.4229 70.3898 29.2153 70.1917C29.4134 70.146 29.642 69.9327 29.7334 69.7194C29.8248 69.506 29.9924 69.3384 30.0839 69.3384C30.1905 69.3384 30.8915 69.5365 31.6686 69.7955C37.2458 71.5784 43.4934 71.5632 49.0858 69.7651C50.4724 69.3232 50.5486 69.3232 50.7467 69.5822C50.8534 69.7346 50.9448 69.9022 50.9448 69.9479C50.9448 69.9936 51.1734 70.1613 51.4629 70.2984C52.1944 70.6336 52.6515 71.487 53.5505 74.2146C53.962 75.4946 54.4496 76.8051 54.602 77.1098C55.2115 78.2984 56.3544 78.847 57.4972 78.4965C58.2896 78.2679 58.7467 77.5822 58.8382 76.5765C58.9144 75.647 58.701 75.1594 57.2686 72.9955C56.7353 72.2032 56.0496 71.0908 55.7448 70.5117C55.2267 69.5517 55.1658 69.2927 55.242 68.1955C55.242 68.0279 55.2115 67.7232 55.1505 67.5098C55.0591 67.1746 55.1353 67.0679 55.7753 66.6717C60.8953 63.4717 65.0401 58.3517 67.341 52.4241C67.8286 51.1289 67.8439 51.1289 68.3924 51.1136C68.6972 51.0984 69.0172 51.0222 69.1239 50.9155C69.5658 50.4736 71.1353 50.8089 74.4115 52.0432C77.1391 53.0641 78.3886 52.9879 79.1505 51.7689C79.6229 51.007 79.4858 49.8336 78.8305 49.1479C78.2058 48.5079 77.2001 48.2336 74.4877 48.0051C71.7448 47.7765 70.861 47.5479 70.1753 46.8927C69.8553 46.6032 69.4743 46.3289 69.3067 46.2984C69.0782 46.2527 69.002 46.1308 69.0172 45.7955C69.0324 45.5365 69.0934 44.5155 69.1543 43.5098C69.4743 38.1917 67.8591 31.9136 64.9791 27.2203L64.3391 26.1689L64.7201 25.7727C64.9334 25.5441 65.1163 25.1936 65.1163 24.9955C65.1163 24.4317 66.4877 23.2432 68.4839 22.0698C70.861 20.6679 71.4705 20.2108 71.821 19.5098C72.842 17.5136 71.0591 15.6698 68.9715 16.5384C68.6363 16.6755 67.5848 17.6051 66.3658 18.8394C64.0648 21.1555 63.3944 21.6736 62.6324 21.6736C62.3429 21.6736 61.9163 21.7955 61.6724 21.9479L61.2458 22.2375L60.0267 21.1251C57.482 18.8394 55.3029 17.3613 52.4229 16.0051C49.7105 14.7251 46.3124 13.7498 43.6305 13.4603C42.7467 13.3689 42.7163 13.3536 42.7163 12.927C42.7163 12.6679 42.5486 12.2717 42.3353 12.0127C41.9848 11.6013 41.9544 11.4336 41.9544 10.1689C41.9544 9.39174 42.061 8.08126 42.1829 7.25841C42.4877 5.2165 42.4724 3.87555 42.1372 3.20507C41.5886 2.10793 40.2629 1.66603 39.2724 2.27555ZM45.9924 19.8298C47.7144 20.2717 49.7258 21.0794 51.341 21.9632C53.3829 23.0908 56.4001 25.4375 56.2172 25.7422C56.1105 25.9098 47.1048 32.3098 46.5715 32.5841C46.1144 32.8432 45.2305 32.8127 44.6972 32.5384C43.8286 32.0965 43.7524 31.746 43.4629 26.5955C43.3105 23.9898 43.1582 21.2775 43.0972 20.5613L43.021 19.2508L43.8896 19.3879C44.3772 19.4641 45.322 19.6622 45.9924 19.8298ZM37.3829 20.0279C37.3829 21.9175 36.7429 31.3194 36.6058 31.5936C36.1029 32.5841 35.1429 33.0565 34.2896 32.7822C33.7563 32.5994 24.2477 25.9251 24.1867 25.6813C24.1258 25.4832 25.802 24.0813 27.2953 23.0451C28.7124 22.0698 31.0744 20.8965 32.7353 20.3479C34.1677 19.8603 36.1944 19.3879 36.8953 19.3727C37.3677 19.3575 37.3829 19.3727 37.3829 20.0279ZM24.9182 33.9708C27.2039 36.0127 29.261 37.9175 29.5048 38.2222C30.2667 39.2127 29.9315 40.6755 28.8343 41.1784C27.9658 41.5746 17.421 44.5613 17.2991 44.4394C17.2382 44.3784 17.1924 43.2813 17.2077 42.0165C17.2229 39.4108 17.482 37.6279 18.1982 35.3117C18.8839 33.1022 20.301 30.0851 20.621 30.207C20.6972 30.2375 22.6324 31.9289 24.9182 33.9708ZM60.8039 31.7765C62.4496 34.9308 63.2877 38.4965 63.2877 42.306C63.2877 43.5098 63.2267 44.5003 63.1658 44.5003C62.8458 44.5003 51.9963 41.3003 51.5696 41.087C50.5639 40.5536 50.2134 39.3041 50.8229 38.4051C51.2648 37.7651 59.6458 30.1765 59.8591 30.2375C59.9505 30.2527 60.362 30.9536 60.8039 31.7765ZM49.802 35.967C49.8477 36.0432 49.4363 36.6375 48.8877 37.2927C47.5467 38.8927 46.8001 40.4775 46.1448 43.0375C45.8553 44.1803 45.3982 45.5822 45.1391 46.146C44.4839 47.5022 43.3563 48.6146 42.2134 49.0413C40.5677 49.666 37.7639 49.3917 36.4991 48.4775C36.2401 48.3098 35.9658 48.1575 35.8896 48.1575C35.7067 48.1575 34.8686 50.1536 34.7315 50.9308C34.6553 51.3727 34.5486 51.5098 34.3353 51.5098C33.9391 51.5098 33.9391 51.0679 34.3201 49.9708C35.5239 46.4508 39.0134 42.1689 42.3048 40.1727C43.1124 39.6698 43.7829 39.167 43.7829 39.0603C43.7829 38.4203 42.5944 38.8927 40.6591 40.3403C39.0896 41.5136 37.0782 43.6622 36.0115 45.3079C35.5391 46.0546 35.0667 46.6184 34.9296 46.6184C34.3201 46.6489 33.8477 44.287 34.1677 42.8394C35.0972 38.5117 40.1715 35.967 48.1563 35.8451C49.0096 35.8298 49.741 35.8755 49.802 35.967ZM31.4705 48.386C31.8972 48.5536 32.3544 49.4375 32.3544 50.0622C32.3544 50.4432 31.6229 52.4089 30.1143 56.0965C28.8648 59.0984 27.8134 61.567 27.7524 61.567C27.7067 61.567 27.0972 61.1555 26.4115 60.6375C23.9734 58.8394 21.6877 56.2184 20.0724 53.3841C19.402 52.1955 18.5334 50.1841 18.6553 50.0775C18.7163 50.0165 29.0782 48.2336 29.9924 48.127C30.4343 48.0813 30.922 48.1575 31.4705 48.386ZM56.0344 48.9955C59.2039 49.5289 61.8401 50.0013 61.8858 50.047C61.9315 50.0927 61.8401 50.4584 61.6877 50.8546C60.7429 53.3841 58.762 56.3555 56.5829 58.5194C55.1658 59.9365 52.8801 61.7346 52.7124 61.5517C52.4991 61.3232 48.1563 50.5651 48.0953 50.1384C47.9734 49.1632 48.9791 48.0051 49.9544 48.0051C50.122 48.0051 52.8496 48.447 56.0344 48.9955ZM41.2229 53.0641C41.3601 53.1251 41.6496 53.4146 41.8477 53.6889C42.2134 54.1613 47.3334 63.3803 47.5163 63.8679C47.5924 64.066 47.3791 64.1879 46.3429 64.4622C44.301 65.0108 42.6248 65.2241 40.2782 65.2241C37.9315 65.2241 36.2553 65.0108 34.2134 64.4622C33.2077 64.1879 32.9486 64.066 33.0096 63.8679C33.1467 63.3803 38.5715 53.7346 38.9067 53.3841C39.4705 52.7898 40.4458 52.6527 41.2229 53.0641Z" fill="#53DD6C"/>
</svg>
