<?xml version="1.0" standalone="no"?>
<!DOCTYPE svg PUBLIC "-//W3C//DTD SVG 20010904//EN"
 "http://www.w3.org/TR/2001/REC-SVG-20010904/DTD/svg10.dtd">
<svg version="1.0" xmlns="http://www.w3.org/2000/svg"
 width="525.000000pt" height="525.000000pt" viewBox="0 0 525.000000 525.000000"
 preserveAspectRatio="xMidYMid meet">

<g transform="translate(0.000000,525.000000) scale(0.100000,-0.100000)"
fill="#000000" stroke="none">
<path d="M2574 5121 c-80 -49 -95 -110 -69 -280 9 -64 20 -160 22 -213 6 -93
5 -100 -20 -136 -14 -22 -27 -52 -29 -67 -3 -29 -4 -29 -118 -46 -139 -20
-181 -30 -307 -70 -269 -86 -485 -212 -708 -414 -85 -77 -94 -83 -111 -70 -11
8 -34 15 -52 15 -55 0 -90 26 -252 185 -122 120 -164 155 -197 165 -154 46
-254 -129 -139 -244 19 -18 87 -65 153 -104 126 -75 218 -140 238 -169 7 -10
16 -33 20 -51 4 -18 15 -38 26 -45 10 -6 19 -15 19 -19 0 -5 -24 -50 -53 -101
-119 -205 -196 -421 -238 -667 -13 -75 -19 -395 -9 -499 5 -53 4 -55 -24 -64
-16 -5 -40 -23 -55 -39 -33 -37 -97 -55 -251 -69 -177 -16 -247 -29 -281 -52
-103 -70 -102 -191 2 -245 60 -32 115 -25 264 34 65 25 155 55 201 67 74 19
87 20 116 8 18 -8 50 -14 72 -15 l38 -1 27 -75 c136 -369 419 -721 754 -934
50 -32 57 -40 50 -59 -4 -12 -7 -46 -5 -75 3 -65 -22 -119 -140 -299 -93 -143
-113 -195 -97 -258 16 -63 56 -97 121 -103 44 -3 59 0 88 20 53 36 75 78 121
221 67 214 111 298 163 311 13 3 28 17 34 31 6 14 17 25 23 25 7 0 53 -13 104
-30 366 -117 776 -116 1143 2 91 29 96 29 109 12 7 -10 13 -21 13 -24 0 -3 15
-14 34 -23 48 -22 78 -78 137 -257 27 -84 59 -170 69 -190 40 -78 115 -114
190 -91 52 15 82 60 88 126 5 61 -9 93 -103 235 -35 52 -80 125 -100 163 -34
63 -38 80 -33 152 0 11 -2 31 -6 45 -6 22 -1 29 41 55 336 210 608 546 759
935 32 85 33 85 69 86 20 1 41 6 48 13 29 29 132 7 347 -74 179 -67 261 -62
311 18 31 50 22 127 -21 172 -41 42 -107 60 -285 75 -180 15 -238 30 -283 73
-21 19 -46 37 -57 39 -15 3 -20 11 -19 33 1 17 5 84 9 150 21 349 -85 761
-274 1069 l-42 69 25 26 c14 15 26 38 26 51 0 37 90 115 221 192 156 92 196
122 219 168 67 131 -50 252 -187 195 -22 -9 -91 -70 -171 -151 -151 -152 -195
-186 -245 -186 -19 0 -47 -8 -63 -18 l-28 -19 -80 73 c-167 150 -310 247 -499
336 -178 84 -401 148 -577 167 -58 6 -60 7 -60 35 0 17 -11 43 -25 60 -23 27
-25 38 -25 121 0 51 7 137 15 191 20 134 19 222 -3 266 -36 72 -123 101 -188
61z m441 -1152 c113 -29 245 -82 351 -140 134 -74 332 -228 320 -248 -7 -11
-598 -431 -633 -449 -30 -17 -88 -15 -123 3 -57 29 -62 52 -81 390 -10 171
-20 349 -24 396 l-5 86 57 -9 c32 -5 94 -18 138 -29z m-565 -13 c0 -124 -42
-741 -51 -759 -33 -65 -96 -96 -152 -78 -35 12 -659 450 -663 466 -4 13 106
105 204 173 93 64 248 141 357 177 94 32 227 63 273 64 31 1 32 0 32 -43z
m-818 -915 c150 -134 285 -259 301 -279 50 -65 28 -161 -44 -194 -57 -26 -749
-222 -757 -214 -4 4 -7 76 -6 159 1 171 18 288 65 440 45 145 138 343 159 335
5 -2 132 -113 282 -247z m2355 144 c108 -207 163 -441 163 -691 0 -79 -4 -144
-8 -144 -21 0 -733 210 -761 224 -66 35 -89 117 -49 176 29 42 579 540 593
536 6 -1 33 -47 62 -101z m-722 -275 c3 -5 -24 -44 -60 -87 -88 -105 -137
-209 -180 -377 -19 -75 -49 -167 -66 -204 -43 -89 -117 -162 -192 -190 -108
-41 -292 -23 -375 37 -17 11 -35 21 -40 21 -12 0 -67 -131 -76 -182 -5 -29
-12 -38 -26 -38 -26 0 -26 29 -1 101 79 231 308 512 524 643 53 33 97 66 97
73 0 42 -78 11 -205 -84 -103 -77 -235 -218 -305 -326 -31 -49 -62 -86 -71
-86 -40 -2 -71 153 -50 248 61 284 394 451 918 459 56 1 104 -2 108 -8z
m-1203 -815 c28 -11 58 -69 58 -110 0 -25 -48 -154 -147 -396 -82 -197 -151
-359 -155 -359 -3 0 -43 27 -88 61 -160 118 -310 290 -416 476 -44 78 -101
210 -93 217 4 4 684 121 744 128 29 3 61 -2 97 -17z m1612 -40 c208 -35 381
-66 384 -69 3 -3 -3 -27 -13 -53 -62 -166 -192 -361 -335 -503 -93 -93 -243
-211 -254 -199 -14 15 -299 721 -303 749 -8 64 58 140 122 140 11 0 190 -29
399 -65z m-972 -267 c9 -4 28 -23 41 -41 24 -31 360 -636 372 -668 5 -13 -9
-21 -77 -39 -134 -36 -244 -50 -398 -50 -154 0 -264 14 -398 50 -66 18 -83 26
-79 39 9 32 365 665 387 688 37 39 101 48 152 21z"/>
</g>
</svg>
